<svg width="15.555664" height="15.555555" viewBox="0 0 15.5557 15.5556" fill="none" xmlns="http://www.w3.org/2000/svg" xmlns:xlink="http://www.w3.org/1999/xlink">
	<desc>
			Created with Pixso.
	</desc>
	<defs/>
	<path id="Shape" d="M11.1111 9.77778L10.3999 9.77778L10.1333 9.51111C11.0222 8.53333 11.5557 7.2 11.5557 5.77778C11.5557 2.57778 8.97778 0 5.77783 0C2.57788 0 0 2.57778 0 5.77778C0 8.97778 2.57788 11.5556 5.77783 11.5556C7.19995 11.5556 8.53345 11.0222 9.51123 10.1333L9.77783 10.4L9.77783 11.1111L14.2222 15.5556L15.5557 14.2222L11.1111 9.77778ZM1.77783 5.77778C1.77783 8 3.55566 9.77778 5.77783 9.77778C8 9.77778 9.77783 8 9.77783 5.77778C9.77783 3.55556 8 1.77778 5.77783 1.77778C3.55566 1.77778 1.77783 3.55556 1.77783 5.77778Z" clip-rule="evenodd" fill="#B2B2B2" fill-opacity="1.000000" fill-rule="evenodd"/>
</svg>
